<svg width="24" height="25" viewBox="0 0 24 25" fill="none" xmlns="http://www.w3.org/2000/svg">
<g clip-path="url(#clip0_49_1283)">
<path d="M22.8516 6.869C21.8719 4.79244 20.3203 3.04869 18.3656 1.82525C15.6469 0.128379 12.4266 -0.410683 9.30468 0.311191C6.18281 1.02838 3.52499 2.92213 1.82812 5.64088C0.126556 8.35963 -0.412506 11.5753 0.309369 14.7018C1.03124 17.8237 2.92499 20.4815 5.63906 22.1784C7.55156 23.3737 9.74531 24.0065 11.9906 24.0065H12.1359C14.3719 23.9784 16.5469 23.3315 18.4312 22.1409C18.9797 21.794 19.1391 21.0721 18.7922 20.5237C18.4453 19.9753 17.7234 19.8159 17.175 20.1628C15.6609 21.1237 13.9078 21.644 12.1078 21.6674C10.2609 21.6909 8.45624 21.1799 6.88124 20.2003C4.69218 18.8315 3.16874 16.694 2.59218 14.1815C2.01562 11.669 2.44687 9.0815 3.81562 6.89244C6.63749 2.37838 12.6094 1.00025 17.1234 3.82213C18.6984 4.8065 19.9453 6.20807 20.7328 7.87682C21.5016 9.50338 21.8016 11.3081 21.6 13.0893C21.5297 13.7315 21.9891 14.3128 22.6359 14.3831C23.2781 14.4534 23.8594 13.994 23.9297 13.3471C24.1781 11.1299 23.8031 8.88932 22.8516 6.869Z" fill="#E4CFFF"/>
</g>
<defs>
<clipPath id="clip0_49_1283">
<rect width="24" height="24" fill="white" transform="translate(0 0.00170898)"/>
</clipPath>
</defs>
</svg>
